<?xml version="1.0" encoding="UTF-8"?>
<svg id="Capa_1" data-name="Capa 1" xmlns="http://www.w3.org/2000/svg" viewBox="0 0 1951.74 484">
  <defs>
    <style>
      .cls-1 {
        fill: #f4f2f2;
      }
    </style>
  </defs>
  <g>
    <g>
      <path class="cls-1" d="M559.67,35.5h33.3c19.19,0,32.17,12.37,32.17,32.05v325.57h178.93c19.19,0,32.17,12.93,32.17,32.05v21.93h-276.57V35.5Z"/>
      <path class="cls-1" d="M914.11,46.75c20.88,0,36.12,15.74,36.12,34.86s-14.67,35.99-36.12,35.99-36.69-16.3-36.69-35.99c0-18.55,15.24-34.86,36.69-34.86ZM884.76,417.86V153.58h29.35c16.93,0,29.35,12.37,29.35,29.24v264.28h-29.35c-16.93,0-29.35-12.37-29.35-29.24Z"/>
      <path class="cls-1" d="M1064.79,447.1h-29.92V153.58h29.92c16.93,0,29.35,12.37,29.35,29.24v15.74c21.45-24.74,55.88-50.05,104.99-50.05,66.03,0,112.32,47.23,112.32,123.14v175.43h-29.92c-16.93,0-29.35-12.37-29.35-29.24v-134.95c0-51.73-27.1-80.41-72.81-80.41-51.36,0-85.23,35.99-85.23,84.91v130.45c0,16.87-12.42,29.24-29.35,29.24Z"/>
      <path class="cls-1" d="M1451.39,63.62v220.98l104.42-114.71c9.03-10.68,22.02-16.31,35.57-16.31h51.36l-130.38,143.95,141.1,149.57h-53.06c-13.54,0-25.96-5.06-34.99-15.74l-114.02-120.33v106.84c0,16.87-12.42,29.24-29.35,29.24h-29.92V34.38h29.92c16.93,0,29.35,12.37,29.35,29.24Z"/>
    </g>
    <path class="cls-1" d="M1922.23,161.96h-29.46v36.33c-24.97-22.62-58.98-36.33-98.84-36.33-85.59,0-143.7,63.15-143.7,142.1s58.11,143.15,143.7,143.15c39.86,0,73.87-13.83,98.84-36.62v8.2c0,15.11,12.3,27.36,27.47,27.36h28V187.88c0-14.31-11.65-25.91-26.01-25.91ZM1793.93,396.69c-56.53,0-87.7-38.42-87.7-92.63s31.17-91.58,87.7-91.58,87.7,37.89,87.7,91.58-31.17,92.63-87.7,92.63Z"/>
  </g>
  <path class="cls-1" d="M244.93,1.48C111.59,1.48,3.5,109.17,3.5,242s108.09,240.52,241.43,240.52,241.43-107.68,241.43-240.52S378.28,1.48,244.93,1.48ZM378.51,224.14c6.08,63.17-26.49,123.11-87.58,144.76-4.2,1.49-26,7.51-28.87,7.51H44.69l74.66-76.22c-6.5-24.5-12.58-46.14-10.37-72.03,4.69-54.99,60.72-120.58,118.82-120.58h217.37l-76.79,76.22c2.5,13.99,8.72,25.66,10.13,40.33Z"/>
  <g>
    <path class="cls-1" d="M161.38,255.98c-12.06-10.13-3.97-35.56,14.95-33.09,33.15,4.32,10.58,54.54-14.95,33.09Z"/>
    <path class="cls-1" d="M300.63,229.53c17.7-18.98,46.29,7.58,27.26,26.1-16.75,16.3-42.53-9.72-27.26-26.1Z"/>
    <path class="cls-1" d="M232.11,255.93c-16.82-15.3,6.59-44.87,24.91-28,18.53,17.08-7.64,43.71-24.91,28Z"/>
  </g>
</svg>