<?xml version="1.0" encoding="UTF-8"?>
<svg id="Capa_1" data-name="Capa 1" xmlns="http://www.w3.org/2000/svg" viewBox="0 0 1613.04 1613.04">
  <defs>
    <style>
      .cls-1 {
        fill: #205577;
      }

      .cls-2 {
        fill: #fff;
      }

      .cls-3 {
        fill: #f38933;
      }
    </style>
  </defs>
  <ellipse class="cls-1" cx="806.52" cy="806.52" rx="782.62" ry="779.65"/>
  <path class="cls-2" d="M1455.61,370.83l-248.93,247.06c8.09,45.34,28.26,83.19,32.83,130.74,19.7,204.76-85.86,399.07-283.88,469.23-13.6,4.82-84.27,24.35-93.57,24.35H157.44l242-247.06c-21.07-79.42-40.78-149.55-33.62-233.47,15.21-178.26,196.83-390.85,385.17-390.85h704.62Z"/>
  <g>
    <path class="cls-3" d="M535.68,851.83c-39.09-32.83-12.87-115.27,48.47-107.28,107.47,14,34.3,176.8-48.47,107.28Z"/>
    <path class="cls-3" d="M987.07,766.1c57.36-61.52,150.06,24.58,88.37,84.6-54.3,52.83-137.87-31.52-88.37-84.6Z"/>
    <path class="cls-1" d="M764.95,851.68c-54.52-49.6,21.37-145.46,80.74-90.75,60.07,55.35-24.75,141.69-80.74,90.75Z"/>
  </g>
</svg>