<?xml version="1.0" encoding="UTF-8"?>
<svg id="Capa_1" data-name="Capa 1" xmlns="http://www.w3.org/2000/svg" viewBox="0 0 1951.74 1285.39">
  <defs>
    <style>
      .cls-1 {
        fill: #205577;
      }

      .cls-2 {
        fill: #fff;
      }

      .cls-3 {
        fill: #f38933;
      }
    </style>
  </defs>
  <g>
    <ellipse class="cls-1" cx="975.87" cy="341.34" rx="336.07" ry="334.8"/>
    <path class="cls-2" d="M1254.6,154.25l-106.9,106.09c3.47,19.47,12.13,35.72,14.1,56.14,8.46,87.93-36.87,171.37-121.9,201.5-5.84,2.07-36.19,10.46-40.18,10.46h-302.58l103.92-106.09c-9.05-34.1-17.51-64.22-14.44-100.26,6.53-76.55,84.52-167.84,165.4-167.84h302.58Z"/>
    <g>
      <path class="cls-3" d="M859.56,360.8c-16.78-14.1-5.53-49.5,20.81-46.07,46.15,6.01,14.73,75.92-20.81,46.07Z"/>
      <path class="cls-3" d="M1053.4,323.98c24.63-26.42,64.44,10.56,37.95,36.33-23.32,22.69-59.2-13.54-37.95-36.33Z"/>
      <path class="cls-1" d="M958.02,360.73c-23.41-21.3,9.18-62.46,34.67-38.97,25.8,23.77-10.63,60.84-34.67,38.97Z"/>
    </g>
  </g>
  <g>
    <g>
      <path class="cls-3" d="M9.44,705.75h46.35c26.71,0,44.79,17.22,44.79,44.62v453.18h249.06c26.71,0,44.79,18,44.79,44.62v30.52H9.44v-572.94Z"/>
      <path class="cls-3" d="M502.8,721.41c29.07,0,50.28,21.92,50.28,48.53s-20.43,50.09-50.28,50.09-51.07-22.7-51.07-50.09c0-25.83,21.22-48.53,51.07-48.53ZM461.95,1237.99v-367.87h40.85c23.57,0,40.85,17.22,40.85,40.7v367.87h-40.85c-23.57,0-40.85-17.22-40.85-40.7Z"/>
      <path class="cls-3" d="M712.56,1278.69h-41.64v-408.57h41.64c23.57,0,40.85,17.22,40.85,40.7v21.92c29.86-34.44,77.79-69.66,146.14-69.66,91.92,0,156.35,65.75,156.35,171.41v244.2h-41.64c-23.57,0-40.85-17.22-40.85-40.7v-187.85c0-72.01-37.72-111.93-101.36-111.93-71.5,0-118.64,50.09-118.64,118.19v181.59c0,23.48-17.28,40.7-40.85,40.7Z"/>
      <path class="cls-3" d="M1250.7,744.89v307.61l145.35-159.67c12.57-14.87,30.65-22.7,49.51-22.7h71.49l-181.49,200.37,196.41,208.2h-73.85c-18.85,0-36.13-7.04-48.71-21.92l-158.72-167.5v148.71c0,23.48-17.28,40.7-40.85,40.7h-41.64v-574.5h41.64c23.57,0,40.85,17.22,40.85,40.7Z"/>
    </g>
    <path class="cls-3" d="M1906.09,881.78h-41.01v50.57c-34.76-31.48-82.1-50.57-137.58-50.57-119.13,0-200.03,87.91-200.03,197.8s80.89,199.27,200.03,199.27c55.49,0,102.83-19.25,137.58-50.97v11.41c0,21.04,17.12,38.09,38.24,38.09h38.98v-359.52c0-19.92-16.21-36.07-36.21-36.07ZM1727.5,1208.52c-78.68,0-122.07-53.48-122.07-128.94s43.39-127.47,122.07-127.47,122.07,52.75,122.07,127.47-43.39,128.94-122.07,128.94Z"/>
  </g>
</svg>